<svg xmlns="http://www.w3.org/2000/svg" width="24.358" height="19.51" viewBox="0 0 24.358 19.51">
  <g id="Raggruppa_121" data-name="Raggruppa 121" transform="translate(-954.82 -250.245)">
    <path id="folder" d="M9.755,1.75l2.4,2.453h9.755a2.434,2.434,0,0,1,2.453,2.453V18.807a2.434,2.434,0,0,1-2.453,2.453H2.453a2.368,2.368,0,0,1-1.74-.713A2.364,2.364,0,0,1,0,18.807V4.2a2.368,2.368,0,0,1,.713-1.74A2.364,2.364,0,0,1,2.453,1.75Z" transform="translate(954.82 248.495)" fill="#fff"/>
    <g id="Raggruppa_120" data-name="Raggruppa 120" transform="translate(1.21 0.113)">
      <path id="Tracciato_36" data-name="Tracciato 36" d="M9.7,16.875H5.366a.866.866,0,0,0-.866.866v3.465a.866.866,0,0,0,.866.866H9.7a.866.866,0,0,0,.866-.866V17.741A.866.866,0,0,0,9.7,16.875Z" transform="translate(959.876 243.795)" fill="#1db1e0"/>
      <path id="Tracciato_37" data-name="Tracciato 37" d="M22.073,4.5H17.741a.866.866,0,0,0-.866.866V7.532a.866.866,0,0,0,.866.866h4.331a.866.866,0,0,0,.866-.866V5.366A.866.866,0,0,0,22.073,4.5Z" transform="translate(952.265 251.406)" fill="#1db1e0"/>
      <path id="Tracciato_38" data-name="Tracciato 38" d="M25.532,16.875H23.366a.866.866,0,0,0-.866.866v2.166a.866.866,0,0,0,.866.866h2.166a.866.866,0,0,0,.866-.866V17.741A.866.866,0,0,0,25.532,16.875Z" transform="translate(948.806 243.795)" fill="#1db1e0"/>
      <path id="Tracciato_39" data-name="Tracciato 39" d="M7.532,4.5H5.366a.866.866,0,0,0-.866.866V7.532a.866.866,0,0,0,.866.866H7.532A.866.866,0,0,0,8.4,7.532V5.366A.866.866,0,0,0,7.532,4.5Z" transform="translate(959.876 251.406)" fill="#1db1e0"/>
    </g>
  </g>
</svg>
