<svg width="16" height="16" fill="#ffffff" viewBox="0 0 16 16" version="1.1" id="svg1247" xmlns="http://www.w3.org/2000/svg" xmlns:svg="http://www.w3.org/2000/svg">
  <path id="path1245" d="M 4,0 A 2,2 0 0 0 2,2 v 9 H 3 V 2 A 1,1 0 0 1 4,1 H 9.5 V 3 A 1.5,1.5 0 0 0 11,4.5 h 2 V 14 a 1,1 0 0 1 -1,1 h -1 v 1 h 1 a 2,2 0 0 0 2,-2 V 4.5 L 9.5,0 Z m 4,4.4902344 c -0.276142,0 -0.5,0.2238579 -0.5,0.5 V 8.7832031 L 6.3535156,7.6367188 C 5.8815164,7.1647194 5.174485,7.8717507 5.6464844,8.34375 l 2,2 c 0.1953637,0.195858 0.5116676,0.195858 0.7070312,0 l 2.0000004,-2 C 10.825515,7.8717507 10.118484,7.1647194 9.6464844,7.6367188 L 8.5,8.7832031 V 4.9902344 c 0,-0.2761421 -0.2238579,-0.5 -0.5,-0.5 z M 5.1054688,11.849609 C 4.812469,11.849609 4.5531248,11.9 4.328125,12 c -0.2249998,0.099 -0.3983908,0.240875 -0.5253906,0.421875 -0.1269999,0.182 -0.1914063,0.394672 -0.1914063,0.638672 0,0.201 0.041047,0.375438 0.1230469,0.523437 0.082,0.149 0.1995627,0.270188 0.3515625,0.367188 0.1519998,0.095 0.3320627,0.166891 0.5390625,0.21289 l 0.6171875,0.144532 c 0.2069998,0.049 0.3608907,0.113359 0.4628906,0.193359 a 0.387,0.387 0 0 1 0.1523438,0.324219 0.505,0.505 0 0 1 -0.083984,0.291016 0.559,0.559 0 0 1 -0.2558594,0.193359 c -0.1109999,0.047 -0.2481095,0.07031 -0.4121093,0.07031 -0.1169999,0 -0.2233126,-0.01401 -0.3203126,-0.04101 A 0.838,0.838 0 0 1 4.5371094,15.224609 0.578,0.578 0 0 1 4.28125,14.841797 H 3.5175781 a 1.13,1.13 0 0 0 0.4003907,0.822265 c 0.1299998,0.108 0.2895158,0.191954 0.4785156,0.251954 0.1899998,0.061 0.4100627,0.0918 0.6640625,0.0918 0.3379996,0 0.6243752,-0.0532 0.859375,-0.158203 0.2359997,-0.105 0.4160626,-0.253406 0.5390625,-0.441406 0.1249999,-0.189 0.1875,-0.406297 0.1875,-0.654297 0,-0.224 -0.045766,-0.410547 -0.1347656,-0.560547 a 1.001,1.001 0 0 0 -0.375,-0.357421 2.027,2.027 0 0 0 -0.5664063,-0.208985 L 4.9492188,13.482422 A 0.97,0.97 0 0 1 4.546875,13.306641 0.37,0.37 0 0 1 4.4023438,13.007812 c 0,-0.155999 0.062547,-0.284765 0.1855468,-0.384765 0.1249999,-0.101 0.295719,-0.152344 0.5117188,-0.152344 0.1429998,0 0.2651407,0.02336 0.3691406,0.06836 a 0.624,0.624 0 0 1 0.2460938,0.181641 0.56,0.56 0 0 1 0.1210937,0.257813 h 0.75 a 1.092,1.092 0 0 0 -0.2011719,-0.566407 1.21,1.21 0 0 0 -0.5,-0.410156 1.813,1.813 0 0 0 -0.7792968,-0.152344 z m -3.4257813,0.0078 c -0.3559996,0 -0.6611096,0.07366 -0.91210938,0.222656 -0.24999974,0.148 -0.44026575,0.359813 -0.57226562,0.632813 C 0.06531263,12.98689 0,13.312407 0,13.691406 v 0.498047 c 0,0.379 0.0643595,0.70261 0.19335938,0.974609 0.13099986,0.271 0.32226587,0.480954 0.57226562,0.626954 0.2499997,0.144999 0.5540629,0.216796 0.9140625,0.216796 0.2929997,0 0.5541565,-0.05506 0.7851563,-0.164062 0.2299997,-0.11 0.4128282,-0.259125 0.5488281,-0.453125 a 1.27,1.27 0 0 0 0.2265625,-0.673828 v -0.07617 H 2.4765625 a 0.799,0.799 0 0 1 -0.1191406,0.363281 0.7,0.7 0 0 1 -0.2714844,0.25 0.874,0.874 0 0 1 -0.4003906,0.08594 A 0.845,0.845 0 0 1 1.2070312,15.207035 0.833,0.833 0 0 1 0.90820312,14.81641 1.699,1.699 0 0 1 0.80664062,14.189457 v -0.496094 c 0,-0.247999 0.0335626,-0.459812 0.1015625,-0.632812 A 0.868,0.868 0 0 1 1.2109375,12.660156 0.814,0.814 0 0 1 1.6855469,12.523438 c 0.1499998,0 0.2814845,0.03266 0.3964843,0.09766 a 0.7,0.7 0 0 1 0.2734376,0.259765 0.85,0.85 0 0 1 0.1191406,0.38086 h 0.765625 v -0.07227 A 1.33,1.33 0 0 0 2.7734375,12.226562 1.441,1.441 0 0 0 2.2851562,11.953125 1.838,1.838 0 0 0 1.6796875,11.857422 Z m 5.0742187,0.07422 1.3378907,4 h 0.953125 l 1.3261721,-4 H 9.4921875 L 8.6054688,15.070312 H 8.5664062 L 7.671875,11.931641 Z" />
</svg>
