<svg xmlns="http://www.w3.org/2000/svg" fill="#fff" viewBox="0 0 16 16">
  <path d="M4 0a2 2 0 0 0-2 2v9h1V2a1 1 0 0 1 1-1h5.5v2A1.5 1.5 0 0 0 11 4.5h2V14a1 1 0 0 1-1 1h-1v1h1a2 2 0 0 0 2-2V4.5L9.5 0H4zm3.947 4.385a.497.497 0 0 0-.353.146l-2 2c-.472.472.235 1.18.707.707l1.146-1.146v3.793a.5.5 0 0 0 1 0V6.092l1.147 1.146c.472.472 1.179-.235.707-.707l-2-2a.497.497 0 0 0-.354-.146zM5.105 11.85c-.293 0-.552.05-.777.15a1.23 1.23 0 0 0-.525.422 1.088 1.088 0 0 0-.192.639c0 .2.041.375.123.523.082.149.2.27.352.367.152.095.332.167.539.213l.617.145c.207.049.361.113.463.193.1.077.158.198.152.324a.505.505 0 0 1-.084.291.559.559 0 0 1-.255.194c-.111.047-.249.07-.413.07a1.19 1.19 0 0 1-.32-.041.838.838 0 0 1-.248-.115.578.578 0 0 1-.256-.383h-.763c.011.318.157.617.4.822.13.108.29.192.478.252.19.061.41.092.665.092a2.1 2.1 0 0 0 .859-.158c.236-.105.416-.254.539-.442.125-.189.187-.406.187-.654 0-.224-.045-.41-.134-.56a1.001 1.001 0 0 0-.375-.358 2.027 2.027 0 0 0-.567-.209l-.62-.145a.97.97 0 0 1-.403-.175.37.37 0 0 1-.145-.3c0-.155.063-.284.186-.384.125-.101.296-.152.512-.152.143 0 .265.023.369.068.096.04.18.102.246.182a.56.56 0 0 1 .12.258h.75a1.092 1.092 0 0 0-.2-.567 1.21 1.21 0 0 0-.5-.41 1.813 1.813 0 0 0-.78-.152zm-3.425.007c-.356 0-.661.074-.912.223-.25.148-.44.36-.573.633-.13.274-.195.6-.195.978v.498c0 .38.064.703.193.975.131.271.323.481.573.627.25.145.554.217.914.217.293 0 .554-.055.785-.164.23-.11.413-.26.549-.453a1.27 1.27 0 0 0 .226-.674v-.076h-.763a.799.799 0 0 1-.12.363.7.7 0 0 1-.271.25.874.874 0 0 1-.4.086.845.845 0 0 1-.479-.133.833.833 0 0 1-.299-.39 1.699 1.699 0 0 1-.101-.628v-.496c0-.248.033-.46.101-.632.06-.16.165-.3.303-.4a.814.814 0 0 1 .475-.138.79.79 0 0 1 .396.098.7.7 0 0 1 .273.26.85.85 0 0 1 .12.38h.765v-.072a1.33 1.33 0 0 0-.467-.962 1.441 1.441 0 0 0-.488-.274 1.838 1.838 0 0 0-.605-.096zm5.074.075 1.338 4h.953l1.326-4h-.879l-.887 3.138h-.039l-.894-3.138h-.918z"/>
</svg>
