<svg id="Group_9" data-name="Group 9" xmlns="http://www.w3.org/2000/svg" width="596.892" height="141.371" viewBox="0 0 596.892 141.371">
  <g id="Group_11" data-name="Group 11">
    <g id="Group_10" data-name="Group 10">
      <g id="Group_9-2" data-name="Group 9">
        <path id="Rectangle_5" data-name="Rectangle 5" d="M4.953,0H113.865a4.952,4.952,0,0,1,4.952,4.952V54.533a4.953,4.953,0,0,1-4.953,4.953H4.952A4.952,4.952,0,0,1,0,54.534V4.953A4.953,4.953,0,0,1,4.953,0Z" transform="translate(8.668 8.668)" fill="none"/>
        <path id="Path_25" data-name="Path 25" d="M124.277,0H11.877A11.878,11.878,0,0,0,0,11.877V64.944A11.878,11.878,0,0,0,11.877,76.821h112.4a11.877,11.877,0,0,0,11.877-11.877V11.877A11.877,11.877,0,0,0,124.277,0Zm3.209,63.2a4.953,4.953,0,0,1-4.952,4.953H13.621A4.954,4.954,0,0,1,8.668,63.2V13.62A4.952,4.952,0,0,1,13.62,8.668H122.533a4.953,4.953,0,0,1,4.953,4.952Z" fill="#2c383d"/>
      </g>
      <circle id="Ellipse_3" data-name="Ellipse 3" cx="10.128" cy="10.128" r="10.128" transform="translate(59.57 27.21)" fill="#fff"/>
      <circle id="Ellipse_4" data-name="Ellipse 4" cx="10.128" cy="10.128" r="10.128" transform="translate(28.925 27.21)" fill="#fff"/>
      <path id="Path_26" data-name="Path 26" d="M136.154,106.752,97.985,71.576l27.049,2.994,11.121-12.786Z" fill="#2c383d"/>
    </g>
  </g>
  <g id="Group_12" data-name="Group 12">
    <path id="Path_27" data-name="Path 27" d="M172.782,89.378q-3.435-3.139-3.433-10.257V64.049q0-7.2,3.1-10.3t10.3-3.1h3.936q5.943,0,9,3.308t3.055,9.67V74.516H176.466v6.279a5.112,5.112,0,0,0,1.591,4.02,6.825,6.825,0,0,0,4.689,1.423h13.313v6.28H183.583Q176.215,92.518,172.782,89.378Zm19.007-27.422a4.869,4.869,0,0,0-5.024-5.024h-4.856q-3.015,0-4.228,1.382a5.975,5.975,0,0,0-1.215,4.061v5.861h15.323Z" fill="#fff"/>
    <path id="Path_28" data-name="Path 28" d="M238.719,90.508q-2.136-2.01-2.136-6.363V40.187H224.275v-6.28H243.7V83.726a2.437,2.437,0,0,0,.67,1.926,3.433,3.433,0,0,0,2.261.586h11.136v6.28H243.7A7.038,7.038,0,0,1,238.719,90.508Z" fill="#fff"/>
    <path id="Path_29" data-name="Path 29" d="M295.655,90.508q-2.136-2.01-2.135-6.363V40.187H281.212v-6.28h19.425V83.726a2.434,2.434,0,0,0,.67,1.926,3.429,3.429,0,0,0,2.261.586H314.7v6.28H300.637A7.039,7.039,0,0,1,295.655,90.508Z" fill="#fff"/>
    <path id="Path_30" data-name="Path 30" d="M350.371,99.719a4.664,4.664,0,0,0,1.508-2.6l1.172-4.605h-1.674L337.561,50.652h7.7l10.467,35.083,13.86-51.828h7.284L359.164,97.039a18.123,18.123,0,0,1-2.68,6.364,7.359,7.359,0,0,1-3.559,2.721,16.991,16.991,0,0,1-5.065.628h-4.019v-6.28h3.516A5,5,0,0,0,350.371,99.719Z" fill="#fff"/>
  </g>
  <g id="Group_13" data-name="Group 13">
    <path id="Path_31" data-name="Path 31" d="M402.306,89.378q-3.435-3.139-3.433-10.257V64.049q0-7.034,3.474-10.214t10.76-3.183h10.8v6.28H412.269a6.832,6.832,0,0,0-4.689,1.424,5.112,5.112,0,0,0-1.59,4.019v18.42a5.111,5.111,0,0,0,1.59,4.02,6.827,6.827,0,0,0,4.689,1.423h11.639v6.28h-10.8Q405.738,92.518,402.306,89.378Z" fill="#2c383d"/>
    <path id="Path_32" data-name="Path 32" d="M480.466,89.336q-3.476,3.183-10.759,3.182h-2.763q-7.284,0-10.76-3.182T452.71,79.121V64.049q0-7.034,3.474-10.214t10.76-3.183h2.763q7.285,0,10.759,3.183t3.476,10.214V79.121Q483.942,86.154,480.466,89.336Zm-5.233-30.98a6.832,6.832,0,0,0-4.688-1.424h-4.438a6.83,6.83,0,0,0-4.689,1.424,5.112,5.112,0,0,0-1.591,4.019v18.42a5.112,5.112,0,0,0,1.591,4.02,6.825,6.825,0,0,0,4.689,1.423h4.438a6.827,6.827,0,0,0,4.688-1.423,5.116,5.116,0,0,0,1.592-4.02V62.375A5.116,5.116,0,0,0,475.233,58.356Z" fill="#2c383d"/>
    <path id="Path_33" data-name="Path 33" d="M527.4,92.518h-3.433q-7.368,0-10.8-3.14t-3.432-10.257V64.049q0-7.034,3.474-10.214t10.759-3.183h9.713V33.907h7.117V92.518h-6.7V90.592A11.416,11.416,0,0,1,527.4,92.518Zm4.94-7.746a4.582,4.582,0,0,0,1.34-3.139v-24.7h-10.55a6.828,6.828,0,0,0-4.689,1.424,5.112,5.112,0,0,0-1.59,4.019v18.42a5.111,5.111,0,0,0,1.59,4.02,6.823,6.823,0,0,0,4.689,1.423h5.107A5.289,5.289,0,0,0,532.337,84.772Z" fill="#2c383d"/>
    <path id="Path_34" data-name="Path 34" d="M570.936,89.378Q567.5,86.239,567.5,79.121V64.049q0-7.2,3.1-10.3t10.3-3.1h3.936q5.943,0,9,3.308t3.055,9.67V74.516H574.62v6.279a5.112,5.112,0,0,0,1.591,4.02,6.825,6.825,0,0,0,4.689,1.423h13.313v6.28H581.737Q574.367,92.518,570.936,89.378Zm19.007-27.422a4.869,4.869,0,0,0-5.024-5.024h-4.856q-3.015,0-4.229,1.382a5.98,5.98,0,0,0-1.214,4.061v5.861h15.323Z" fill="#2c383d"/>
  </g>
  <g id="Group_14" data-name="Group 14">
    <path id="Path_35" data-name="Path 35" d="M170.6,129.465h2.224l2.793,8.679,2.876-8.713h1.739l2.876,8.713,2.793-8.679h2.157l-4.08,11.789h-1.773l-2.876-8.412-2.876,8.412h-1.773Z" fill="#2c383d"/>
    <path id="Path_36" data-name="Path 36" d="M204.731,129.465h2.04v4.866h5.619v-4.866h2.04V141.17h-2.04v-4.932h-5.619v4.932h-2.04Z" fill="#2c383d"/>
    <path id="Path_37" data-name="Path 37" d="M236.152,129.381h1.907l5.15,11.789h-2.174l-1.187-2.826h-5.535l-1.2,2.826H231Zm2.943,7.141-2.023-4.683-2.007,4.683Z" fill="#2c383d"/>
    <path id="Path_38" data-name="Path 38" d="M262.657,131.372h-3.712v-1.907h9.5v1.907H264.73v9.8h-2.073Z" fill="#2c383d"/>
    <path id="Path_39" data-name="Path 39" d="M304.763,129.465h4.365a6.927,6.927,0,0,1,2.516.443,5.973,5.973,0,0,1,1.974,1.229,5.48,5.48,0,0,1,1.279,1.848,5.815,5.815,0,0,1,.452,2.3v.033a5.879,5.879,0,0,1-.452,2.308,5.454,5.454,0,0,1-1.279,1.856,6.108,6.108,0,0,1-1.974,1.237,6.8,6.8,0,0,1-2.516.451h-4.365Zm4.347,9.849a4.588,4.588,0,0,0,1.674-.293,3.678,3.678,0,0,0,1.279-.823,3.745,3.745,0,0,0,.819-1.26,4.23,4.23,0,0,0,.293-1.587v-.033a4.3,4.3,0,0,0-.293-1.6,3.632,3.632,0,0,0-2.1-2.1,4.447,4.447,0,0,0-1.674-.3H306.8v7.993Z" fill="#2c383d"/>
    <path id="Path_40" data-name="Path 40" d="M337.99,141.371a6.254,6.254,0,0,1-2.474-.477,5.854,5.854,0,0,1-1.923-1.3,5.93,5.93,0,0,1-1.254-1.914,6.043,6.043,0,0,1-.452-2.333v-.033a6.042,6.042,0,0,1,.452-2.333,5.9,5.9,0,0,1,1.27-1.923,6.11,6.11,0,0,1,4.415-1.8,6.256,6.256,0,0,1,2.475.477,5.869,5.869,0,0,1,1.923,1.3,5.944,5.944,0,0,1,1.254,1.915,6.039,6.039,0,0,1,.452,2.333v.033a6.037,6.037,0,0,1-.452,2.332,5.915,5.915,0,0,1-1.271,1.924,6.11,6.11,0,0,1-1.939,1.312A6.173,6.173,0,0,1,337.99,141.371Zm.034-1.889a3.829,3.829,0,0,0,1.59-.326,3.758,3.758,0,0,0,1.24-.887,4.087,4.087,0,0,0,.808-1.312,4.419,4.419,0,0,0,.292-1.606v-.033a4.482,4.482,0,0,0-.292-1.614,4.01,4.01,0,0,0-.816-1.321,3.935,3.935,0,0,0-1.257-.895,3.87,3.87,0,0,0-4.429.878,4.082,4.082,0,0,0-.807,1.313,4.387,4.387,0,0,0-.292,1.606v.033a4.455,4.455,0,0,0,.292,1.613,3.981,3.981,0,0,0,.815,1.321,3.94,3.94,0,0,0,1.258.9A3.782,3.782,0,0,0,338.024,139.482Z" fill="#2c383d"/>
    <path id="Path_41" data-name="Path 41" d="M384.211,136.555l-4.649-7.09h2.424l3.278,5.184,3.311-5.184h2.358l-4.649,7.04v4.665h-2.073Z" fill="#2c383d"/>
    <path id="Path_42" data-name="Path 42" d="M412.888,141.371a6.256,6.256,0,0,1-2.475-.477,5.854,5.854,0,0,1-1.923-1.3,5.929,5.929,0,0,1-1.254-1.914,6.061,6.061,0,0,1-.452-2.333v-.033a6.061,6.061,0,0,1,.452-2.333,5.9,5.9,0,0,1,1.271-1.923,6.106,6.106,0,0,1,4.415-1.8,6.254,6.254,0,0,1,2.474.477,5.859,5.859,0,0,1,1.923,1.3,5.944,5.944,0,0,1,1.254,1.915,6.039,6.039,0,0,1,.452,2.333v.033a6.037,6.037,0,0,1-.452,2.332,5.912,5.912,0,0,1-1.27,1.924,6.1,6.1,0,0,1-4.415,1.8Zm.034-1.889a3.835,3.835,0,0,0,1.59-.326,3.779,3.779,0,0,0,1.24-.887,4.1,4.1,0,0,0,.808-1.312,4.419,4.419,0,0,0,.292-1.606v-.033a4.482,4.482,0,0,0-.292-1.614,4.013,4.013,0,0,0-.817-1.321,3.914,3.914,0,0,0-1.257-.895,3.869,3.869,0,0,0-4.428.878,4.085,4.085,0,0,0-.808,1.313,4.408,4.408,0,0,0-.292,1.606v.033a4.476,4.476,0,0,0,.292,1.613,4,4,0,0,0,.815,1.321,3.94,3.94,0,0,0,1.258.9A3.789,3.789,0,0,0,412.922,139.482Z" fill="#2c383d"/>
    <path id="Path_43" data-name="Path 43" d="M440.882,141.354a6.116,6.116,0,0,1-2.058-.326,4.141,4.141,0,0,1-1.571-.978,4.343,4.343,0,0,1-1-1.614,6.52,6.52,0,0,1-.351-2.232v-6.739h2.04v6.656a3.54,3.54,0,0,0,.791,2.491,2.834,2.834,0,0,0,2.186.852,2.868,2.868,0,0,0,2.169-.819,3.386,3.386,0,0,0,.791-2.441v-6.739h2.04V136.1a6.689,6.689,0,0,1-.359,2.29,4.518,4.518,0,0,1-1.012,1.648,4.1,4.1,0,0,1-1.581.986A6.233,6.233,0,0,1,440.882,141.354Z" fill="#2c383d"/>
    <path id="Path_44" data-name="Path 44" d="M482.887,129.465h1.9l6.258,8.093v-8.093h2.04V141.17h-1.719l-6.441-8.328v8.328h-2.04Z" fill="#2c383d"/>
    <path id="Path_45" data-name="Path 45" d="M510.662,129.465h8.662v1.856H512.7v3.01h5.87v1.856H512.7v3.127h6.706v1.856h-8.746Z" fill="#2c383d"/>
    <path id="Path_46" data-name="Path 46" d="M536.432,129.465h8.662v1.856h-6.622v3.01h5.87v1.856h-5.87v3.127h6.706v1.856h-8.746Z" fill="#2c383d"/>
    <path id="Path_47" data-name="Path 47" d="M562.2,129.465h4.364a6.928,6.928,0,0,1,2.517.443,5.953,5.953,0,0,1,1.974,1.229,5.493,5.493,0,0,1,1.279,1.848,5.814,5.814,0,0,1,.451,2.3v.033a5.878,5.878,0,0,1-.451,2.308,5.467,5.467,0,0,1-1.279,1.856,6.087,6.087,0,0,1-1.974,1.237,6.8,6.8,0,0,1-2.517.451H562.2Zm4.348,9.849a4.587,4.587,0,0,0,1.673-.293,3.679,3.679,0,0,0,1.279-.823,3.73,3.73,0,0,0,.819-1.26,4.23,4.23,0,0,0,.292-1.587v-.033a4.3,4.3,0,0,0-.292-1.6,3.7,3.7,0,0,0-.819-1.267,3.755,3.755,0,0,0-1.279-.831,4.446,4.446,0,0,0-1.673-.3H564.24v7.993Z" fill="#2c383d"/>
    <path id="Path_48" data-name="Path 48" d="M591.465,134.766l.084-.084a4.759,4.759,0,0,0,2.349-.555,1.51,1.51,0,0,0,.745-1.327v-.033a1.458,1.458,0,0,0-.511-1.151,2.077,2.077,0,0,0-1.413-.446,3.134,3.134,0,0,0-1.463.343,4.808,4.808,0,0,0-1.263.979l-1.254-1.338a5.924,5.924,0,0,1,1.706-1.334,4.972,4.972,0,0,1,2.325-.506,5.189,5.189,0,0,1,1.6.234,3.491,3.491,0,0,1,1.238.678,3.094,3.094,0,0,1,.794,1.07,3.377,3.377,0,0,1,.285,1.413v.034a3.281,3.281,0,0,1-.268,1.371,2.922,2.922,0,0,1-.72.986,3.663,3.663,0,0,1-1.061.652,6.141,6.141,0,0,1-1.313.369l-.167,1.354H591.8Zm-.151,4.113h2.242v2.291h-2.242Z" fill="#2c383d"/>
  </g>
</svg>
